M48
; DRILL file {KiCad (6.0.2-0)} date 2022 September 17, Saturday 18:07:13
; FORMAT={-:-/ absolute / metric / decimal}
; #@! TF.CreationDate,2022-09-17T18:07:13+02:00
; #@! TF.GenerationSoftware,Kicad,Pcbnew,(6.0.2-0)
; #@! TF.FileFunction,Plated,1,4,PTH
FMAT,2
METRIC
; #@! TA.AperFunction,Plated,PTH,ViaDrill
T1C0.400
; #@! TA.AperFunction,Plated,PTH,ComponentDrill
T2C0.950
%
G90
G05
T1
X112.833Y-97.437
X112.958Y-91.287
X114.783Y-91.287
X116.308Y-99.512
X116.308Y-101.437
X117.233Y-105.187
X117.258Y-92.837
X118.258Y-92.837
X118.258Y-96.437
X118.258Y-105.187
X119.733Y-109.612
X119.913Y-108.182
X120.472Y-107.065
X120.65Y-100.054
X120.675Y-101.07
X121.082Y-106.101
X129.408Y-100.087
X131.003Y-104.734
X132.133Y-97.712
X132.283Y-93.687
X132.508Y-96.762
X132.608Y-89.687
X133.258Y-95.712
X133.783Y-87.687
X133.783Y-88.712
X134.008Y-100.762
X134.008Y-101.887
X134.008Y-103.012
X134.008Y-104.162
X134.008Y-105.237
X134.008Y-106.337
X134.258Y-107.487
X134.308Y-95.687
X134.8Y-109.487
X134.833Y-108.487
X135.258Y-95.062
X135.683Y-87.687
X135.683Y-88.712
X136.433Y-89.862
X138.233Y-93.737
X138.281Y-84.006
X138.608Y-94.887
T2
X113.268Y-113.144
X115.768Y-113.144
X118.268Y-113.144
X120.768Y-113.144
X128.508Y-113.144
X131.008Y-113.144
X133.508Y-113.144
X136.008Y-113.144
T0
M30
