G04 #@! TF.GenerationSoftware,KiCad,Pcbnew,(6.0.2-0)*
G04 #@! TF.CreationDate,2022-09-17T18:07:10+02:00*
G04 #@! TF.ProjectId,ER-TFT1_69-1 Adapter,45522d54-4654-4315-9f36-392d31204164,rev?*
G04 #@! TF.SameCoordinates,Original*
G04 #@! TF.FileFunction,Legend,Bot*
G04 #@! TF.FilePolarity,Positive*
%FSLAX46Y46*%
G04 Gerber Fmt 4.6, Leading zero omitted, Abs format (unit mm)*
G04 Created by KiCad (PCBNEW (6.0.2-0)) date 2022-09-17 18:07:10*
%MOMM*%
%LPD*%
G01*
G04 APERTURE LIST*
G04 Aperture macros list*
%AMRoundRect*
0 Rectangle with rounded corners*
0 $1 Rounding radius*
0 $2 $3 $4 $5 $6 $7 $8 $9 X,Y pos of 4 corners*
0 Add a 4 corners polygon primitive as box body*
4,1,4,$2,$3,$4,$5,$6,$7,$8,$9,$2,$3,0*
0 Add four circle primitives for the rounded corners*
1,1,$1+$1,$2,$3*
1,1,$1+$1,$4,$5*
1,1,$1+$1,$6,$7*
1,1,$1+$1,$8,$9*
0 Add four rect primitives between the rounded corners*
20,1,$1+$1,$2,$3,$4,$5,0*
20,1,$1+$1,$4,$5,$6,$7,0*
20,1,$1+$1,$6,$7,$8,$9,0*
20,1,$1+$1,$8,$9,$2,$3,0*%
G04 Aperture macros list end*
%ADD10C,0.150000*%
%ADD11C,0.120000*%
%ADD12RoundRect,0.250000X-0.600000X-0.725000X0.600000X-0.725000X0.600000X0.725000X-0.600000X0.725000X0*%
%ADD13O,1.700000X1.950000*%
G04 APERTURE END LIST*
D10*
X133744047Y-82598571D02*
X133410714Y-82598571D01*
X133267857Y-83122380D02*
X133744047Y-83122380D01*
X133744047Y-82122380D01*
X133267857Y-82122380D01*
X132267857Y-83122380D02*
X132601190Y-82646190D01*
X132839285Y-83122380D02*
X132839285Y-82122380D01*
X132458333Y-82122380D01*
X132363095Y-82170000D01*
X132315476Y-82217619D01*
X132267857Y-82312857D01*
X132267857Y-82455714D01*
X132315476Y-82550952D01*
X132363095Y-82598571D01*
X132458333Y-82646190D01*
X132839285Y-82646190D01*
X131839285Y-82741428D02*
X131077380Y-82741428D01*
X130744047Y-82122380D02*
X130172619Y-82122380D01*
X130458333Y-83122380D02*
X130458333Y-82122380D01*
X129505952Y-82598571D02*
X129839285Y-82598571D01*
X129839285Y-83122380D02*
X129839285Y-82122380D01*
X129363095Y-82122380D01*
X129125000Y-82122380D02*
X128553571Y-82122380D01*
X128839285Y-83122380D02*
X128839285Y-82122380D01*
X127696428Y-83122380D02*
X128267857Y-83122380D01*
X127982142Y-83122380D02*
X127982142Y-82122380D01*
X128077380Y-82265238D01*
X128172619Y-82360476D01*
X128267857Y-82408095D01*
X127505952Y-83217619D02*
X126744047Y-83217619D01*
X126077380Y-82122380D02*
X126267857Y-82122380D01*
X126363095Y-82170000D01*
X126410714Y-82217619D01*
X126505952Y-82360476D01*
X126553571Y-82550952D01*
X126553571Y-82931904D01*
X126505952Y-83027142D01*
X126458333Y-83074761D01*
X126363095Y-83122380D01*
X126172619Y-83122380D01*
X126077380Y-83074761D01*
X126029761Y-83027142D01*
X125982142Y-82931904D01*
X125982142Y-82693809D01*
X126029761Y-82598571D01*
X126077380Y-82550952D01*
X126172619Y-82503333D01*
X126363095Y-82503333D01*
X126458333Y-82550952D01*
X126505952Y-82598571D01*
X126553571Y-82693809D01*
X125505952Y-83122380D02*
X125315476Y-83122380D01*
X125220238Y-83074761D01*
X125172619Y-83027142D01*
X125077380Y-82884285D01*
X125029761Y-82693809D01*
X125029761Y-82312857D01*
X125077380Y-82217619D01*
X125125000Y-82170000D01*
X125220238Y-82122380D01*
X125410714Y-82122380D01*
X125505952Y-82170000D01*
X125553571Y-82217619D01*
X125601190Y-82312857D01*
X125601190Y-82550952D01*
X125553571Y-82646190D01*
X125505952Y-82693809D01*
X125410714Y-82741428D01*
X125220238Y-82741428D01*
X125125000Y-82693809D01*
X125077380Y-82646190D01*
X125029761Y-82550952D01*
X124601190Y-82741428D02*
X123839285Y-82741428D01*
X122839285Y-83122380D02*
X123410714Y-83122380D01*
X123125000Y-83122380D02*
X123125000Y-82122380D01*
X123220238Y-82265238D01*
X123315476Y-82360476D01*
X123410714Y-82408095D01*
X121696428Y-82836666D02*
X121220238Y-82836666D01*
X121791666Y-83122380D02*
X121458333Y-82122380D01*
X121125000Y-83122380D01*
X120363095Y-83122380D02*
X120363095Y-82122380D01*
X120363095Y-83074761D02*
X120458333Y-83122380D01*
X120648809Y-83122380D01*
X120744047Y-83074761D01*
X120791666Y-83027142D01*
X120839285Y-82931904D01*
X120839285Y-82646190D01*
X120791666Y-82550952D01*
X120744047Y-82503333D01*
X120648809Y-82455714D01*
X120458333Y-82455714D01*
X120363095Y-82503333D01*
X119458333Y-83122380D02*
X119458333Y-82598571D01*
X119505952Y-82503333D01*
X119601190Y-82455714D01*
X119791666Y-82455714D01*
X119886904Y-82503333D01*
X119458333Y-83074761D02*
X119553571Y-83122380D01*
X119791666Y-83122380D01*
X119886904Y-83074761D01*
X119934523Y-82979523D01*
X119934523Y-82884285D01*
X119886904Y-82789047D01*
X119791666Y-82741428D01*
X119553571Y-82741428D01*
X119458333Y-82693809D01*
X118982142Y-82455714D02*
X118982142Y-83455714D01*
X118982142Y-82503333D02*
X118886904Y-82455714D01*
X118696428Y-82455714D01*
X118601190Y-82503333D01*
X118553571Y-82550952D01*
X118505952Y-82646190D01*
X118505952Y-82931904D01*
X118553571Y-83027142D01*
X118601190Y-83074761D01*
X118696428Y-83122380D01*
X118886904Y-83122380D01*
X118982142Y-83074761D01*
X118220238Y-82455714D02*
X117839285Y-82455714D01*
X118077380Y-82122380D02*
X118077380Y-82979523D01*
X118029761Y-83074761D01*
X117934523Y-83122380D01*
X117839285Y-83122380D01*
X117125000Y-83074761D02*
X117220238Y-83122380D01*
X117410714Y-83122380D01*
X117505952Y-83074761D01*
X117553571Y-82979523D01*
X117553571Y-82598571D01*
X117505952Y-82503333D01*
X117410714Y-82455714D01*
X117220238Y-82455714D01*
X117125000Y-82503333D01*
X117077380Y-82598571D01*
X117077380Y-82693809D01*
X117553571Y-82789047D01*
X116648809Y-83122380D02*
X116648809Y-82455714D01*
X116648809Y-82646190D02*
X116601190Y-82550952D01*
X116553571Y-82503333D01*
X116458333Y-82455714D01*
X116363095Y-82455714D01*
X129863095Y-83827619D02*
X129815476Y-83780000D01*
X129720238Y-83732380D01*
X129482142Y-83732380D01*
X129386904Y-83780000D01*
X129339285Y-83827619D01*
X129291666Y-83922857D01*
X129291666Y-84018095D01*
X129339285Y-84160952D01*
X129910714Y-84732380D01*
X129291666Y-84732380D01*
X128672619Y-83732380D02*
X128577380Y-83732380D01*
X128482142Y-83780000D01*
X128434523Y-83827619D01*
X128386904Y-83922857D01*
X128339285Y-84113333D01*
X128339285Y-84351428D01*
X128386904Y-84541904D01*
X128434523Y-84637142D01*
X128482142Y-84684761D01*
X128577380Y-84732380D01*
X128672619Y-84732380D01*
X128767857Y-84684761D01*
X128815476Y-84637142D01*
X128863095Y-84541904D01*
X128910714Y-84351428D01*
X128910714Y-84113333D01*
X128863095Y-83922857D01*
X128815476Y-83827619D01*
X128767857Y-83780000D01*
X128672619Y-83732380D01*
X127958333Y-83827619D02*
X127910714Y-83780000D01*
X127815476Y-83732380D01*
X127577380Y-83732380D01*
X127482142Y-83780000D01*
X127434523Y-83827619D01*
X127386904Y-83922857D01*
X127386904Y-84018095D01*
X127434523Y-84160952D01*
X128005952Y-84732380D01*
X127386904Y-84732380D01*
X127005952Y-83827619D02*
X126958333Y-83780000D01*
X126863095Y-83732380D01*
X126625000Y-83732380D01*
X126529761Y-83780000D01*
X126482142Y-83827619D01*
X126434523Y-83922857D01*
X126434523Y-84018095D01*
X126482142Y-84160952D01*
X127053571Y-84732380D01*
X126434523Y-84732380D01*
X125958333Y-84684761D02*
X125958333Y-84732380D01*
X126005952Y-84827619D01*
X126053571Y-84875238D01*
X124196428Y-84732380D02*
X124529761Y-84256190D01*
X124767857Y-84732380D02*
X124767857Y-83732380D01*
X124386904Y-83732380D01*
X124291666Y-83780000D01*
X124244047Y-83827619D01*
X124196428Y-83922857D01*
X124196428Y-84065714D01*
X124244047Y-84160952D01*
X124291666Y-84208571D01*
X124386904Y-84256190D01*
X124767857Y-84256190D01*
X123386904Y-84684761D02*
X123482142Y-84732380D01*
X123672619Y-84732380D01*
X123767857Y-84684761D01*
X123815476Y-84589523D01*
X123815476Y-84208571D01*
X123767857Y-84113333D01*
X123672619Y-84065714D01*
X123482142Y-84065714D01*
X123386904Y-84113333D01*
X123339285Y-84208571D01*
X123339285Y-84303809D01*
X123815476Y-84399047D01*
X123005952Y-84065714D02*
X122767857Y-84732380D01*
X122529761Y-84065714D01*
X122148809Y-84637142D02*
X122101190Y-84684761D01*
X122148809Y-84732380D01*
X122196428Y-84684761D01*
X122148809Y-84637142D01*
X122148809Y-84732380D01*
X120958333Y-83827619D02*
X120910714Y-83780000D01*
X120815476Y-83732380D01*
X120577380Y-83732380D01*
X120482142Y-83780000D01*
X120434523Y-83827619D01*
X120386904Y-83922857D01*
X120386904Y-84018095D01*
X120434523Y-84160952D01*
X121005952Y-84732380D01*
X120386904Y-84732380D01*
D11*
X109988600Y-80105600D02*
X140011400Y-80105600D01*
X140011400Y-80105600D02*
X140011400Y-117494400D01*
X140011400Y-117494400D02*
X109988600Y-117494400D01*
X109988600Y-117494400D02*
X109988600Y-80105600D01*
%LPC*%
D12*
X113267593Y-113143601D03*
D13*
X115767593Y-113143601D03*
X118267593Y-113143601D03*
X120767593Y-113143601D03*
D12*
X128507593Y-113143601D03*
D13*
X131007593Y-113143601D03*
X133507593Y-113143601D03*
X136007593Y-113143601D03*
M02*
