G04 #@! TF.GenerationSoftware,KiCad,Pcbnew,(6.0.2-0)*
G04 #@! TF.CreationDate,2022-09-17T18:07:09+02:00*
G04 #@! TF.ProjectId,ER-TFT1_69-1 Adapter,45522d54-4654-4315-9f36-392d31204164,rev?*
G04 #@! TF.SameCoordinates,Original*
G04 #@! TF.FileFunction,Copper,L1,Top*
G04 #@! TF.FilePolarity,Positive*
%FSLAX46Y46*%
G04 Gerber Fmt 4.6, Leading zero omitted, Abs format (unit mm)*
G04 Created by KiCad (PCBNEW (6.0.2-0)) date 2022-09-17 18:07:09*
%MOMM*%
%LPD*%
G01*
G04 APERTURE LIST*
G04 Aperture macros list*
%AMRoundRect*
0 Rectangle with rounded corners*
0 $1 Rounding radius*
0 $2 $3 $4 $5 $6 $7 $8 $9 X,Y pos of 4 corners*
0 Add a 4 corners polygon primitive as box body*
4,1,4,$2,$3,$4,$5,$6,$7,$8,$9,$2,$3,0*
0 Add four circle primitives for the rounded corners*
1,1,$1+$1,$2,$3*
1,1,$1+$1,$4,$5*
1,1,$1+$1,$6,$7*
1,1,$1+$1,$8,$9*
0 Add four rect primitives between the rounded corners*
20,1,$1+$1,$2,$3,$4,$5,0*
20,1,$1+$1,$4,$5,$6,$7,0*
20,1,$1+$1,$6,$7,$8,$9,0*
20,1,$1+$1,$8,$9,$2,$3,0*%
G04 Aperture macros list end*
G04 #@! TA.AperFunction,SMDPad,CuDef*
%ADD10RoundRect,0.135000X-0.135000X-0.185000X0.135000X-0.185000X0.135000X0.185000X-0.135000X0.185000X0*%
G04 #@! TD*
G04 #@! TA.AperFunction,SMDPad,CuDef*
%ADD11RoundRect,0.135000X0.135000X0.185000X-0.135000X0.185000X-0.135000X-0.185000X0.135000X-0.185000X0*%
G04 #@! TD*
G04 #@! TA.AperFunction,SMDPad,CuDef*
%ADD12R,2.000000X4.500000*%
G04 #@! TD*
G04 #@! TA.AperFunction,SMDPad,CuDef*
%ADD13RoundRect,0.250000X-0.325000X-0.650000X0.325000X-0.650000X0.325000X0.650000X-0.325000X0.650000X0*%
G04 #@! TD*
G04 #@! TA.AperFunction,SMDPad,CuDef*
%ADD14R,0.350000X2.000000*%
G04 #@! TD*
G04 #@! TA.AperFunction,SMDPad,CuDef*
%ADD15RoundRect,0.135000X-0.185000X0.135000X-0.185000X-0.135000X0.185000X-0.135000X0.185000X0.135000X0*%
G04 #@! TD*
G04 #@! TA.AperFunction,ComponentPad*
%ADD16RoundRect,0.250000X-0.600000X-0.725000X0.600000X-0.725000X0.600000X0.725000X-0.600000X0.725000X0*%
G04 #@! TD*
G04 #@! TA.AperFunction,ComponentPad*
%ADD17O,1.700000X1.950000*%
G04 #@! TD*
G04 #@! TA.AperFunction,SMDPad,CuDef*
%ADD18RoundRect,0.140000X-0.140000X-0.170000X0.140000X-0.170000X0.140000X0.170000X-0.140000X0.170000X0*%
G04 #@! TD*
G04 #@! TA.AperFunction,SMDPad,CuDef*
%ADD19RoundRect,0.140000X0.140000X0.170000X-0.140000X0.170000X-0.140000X-0.170000X0.140000X-0.170000X0*%
G04 #@! TD*
G04 #@! TA.AperFunction,SMDPad,CuDef*
%ADD20RoundRect,0.140000X0.170000X-0.140000X0.170000X0.140000X-0.170000X0.140000X-0.170000X-0.140000X0*%
G04 #@! TD*
G04 #@! TA.AperFunction,SMDPad,CuDef*
%ADD21RoundRect,0.100000X0.100000X0.250000X-0.100000X0.250000X-0.100000X-0.250000X0.100000X-0.250000X0*%
G04 #@! TD*
G04 #@! TA.AperFunction,SMDPad,CuDef*
%ADD22RoundRect,0.237500X-0.287500X-0.237500X0.287500X-0.237500X0.287500X0.237500X-0.287500X0.237500X0*%
G04 #@! TD*
G04 #@! TA.AperFunction,SMDPad,CuDef*
%ADD23RoundRect,0.250000X-0.250000X-0.475000X0.250000X-0.475000X0.250000X0.475000X-0.250000X0.475000X0*%
G04 #@! TD*
G04 #@! TA.AperFunction,SMDPad,CuDef*
%ADD24R,3.000000X3.000000*%
G04 #@! TD*
G04 #@! TA.AperFunction,SMDPad,CuDef*
%ADD25R,1.800000X0.600000*%
G04 #@! TD*
G04 #@! TA.AperFunction,SMDPad,CuDef*
%ADD26R,1.000000X1.700000*%
G04 #@! TD*
G04 #@! TA.AperFunction,SMDPad,CuDef*
%ADD27RoundRect,0.075000X0.662500X0.075000X-0.662500X0.075000X-0.662500X-0.075000X0.662500X-0.075000X0*%
G04 #@! TD*
G04 #@! TA.AperFunction,SMDPad,CuDef*
%ADD28RoundRect,0.075000X0.075000X0.662500X-0.075000X0.662500X-0.075000X-0.662500X0.075000X-0.662500X0*%
G04 #@! TD*
G04 #@! TA.AperFunction,ViaPad*
%ADD29C,0.800000*%
G04 #@! TD*
G04 #@! TA.AperFunction,Conductor*
%ADD30C,0.300000*%
G04 #@! TD*
G04 #@! TA.AperFunction,Conductor*
%ADD31C,0.500000*%
G04 #@! TD*
G04 APERTURE END LIST*
D10*
X117615000Y-84331601D03*
X118635000Y-84331601D03*
X117615000Y-86617601D03*
X118635000Y-86617601D03*
D11*
X133284593Y-98756401D03*
X132264593Y-98756401D03*
D12*
X136782593Y-106211601D03*
X136782593Y-97711601D03*
D10*
X117615000Y-82045601D03*
X118635000Y-82045601D03*
D13*
X135325000Y-82525000D03*
X138275000Y-82525000D03*
D14*
X124206200Y-91281600D03*
X124906200Y-91281600D03*
X125606200Y-91281600D03*
X126306200Y-91281600D03*
X127006200Y-91281600D03*
X127706200Y-91281600D03*
X128406200Y-91281600D03*
X129106200Y-91281600D03*
X129806200Y-91281600D03*
X130506200Y-91281600D03*
X131206200Y-91281600D03*
X131906200Y-91281600D03*
X132606200Y-91281600D03*
X133306200Y-91281600D03*
X134006200Y-91281600D03*
X134706200Y-91281600D03*
X135406200Y-91281600D03*
X136106200Y-91281600D03*
D15*
X130987593Y-105411601D03*
X130987593Y-106431601D03*
D16*
X113267593Y-113143601D03*
D17*
X115767593Y-113143601D03*
X118267593Y-113143601D03*
X120767593Y-113143601D03*
D10*
X117615000Y-85474601D03*
X118635000Y-85474601D03*
D18*
X132345393Y-104161601D03*
X133305393Y-104161601D03*
D10*
X111935593Y-90554601D03*
X112955593Y-90554601D03*
D19*
X115744993Y-90554601D03*
X114784993Y-90554601D03*
D10*
X117615000Y-83188601D03*
X118635000Y-83188601D03*
D16*
X128507593Y-113143601D03*
D17*
X131007593Y-113143601D03*
X133507593Y-113143601D03*
X136007593Y-113143601D03*
D20*
X133282593Y-100760401D03*
X133282593Y-99800401D03*
D21*
X119018593Y-109604601D03*
X118318593Y-109604601D03*
D22*
X131140193Y-107976601D03*
X132890193Y-107976601D03*
D21*
X134207593Y-109486601D03*
X133507593Y-109486601D03*
D23*
X135371593Y-93729601D03*
X137271593Y-93729601D03*
D18*
X132345393Y-103018601D03*
X133305393Y-103018601D03*
D24*
X112158593Y-94086601D03*
X112158593Y-103786601D03*
D25*
X114328593Y-96436601D03*
X114328593Y-97436601D03*
X114328593Y-98436601D03*
X114328593Y-99436601D03*
X114328593Y-100436601D03*
X114328593Y-101436601D03*
D26*
X115742593Y-88751601D03*
X115742593Y-82451601D03*
X111942593Y-82451601D03*
X111942593Y-88751601D03*
D19*
X133987593Y-93336601D03*
X133027593Y-93336601D03*
D15*
X121081593Y-104366301D03*
X121081593Y-105386301D03*
D20*
X133282593Y-97712401D03*
X133282593Y-96752401D03*
D10*
X117615000Y-90046601D03*
X118635000Y-90046601D03*
X117615000Y-87760601D03*
X118635000Y-87760601D03*
D18*
X132345393Y-101875601D03*
X133305393Y-101875601D03*
D10*
X117615000Y-88903601D03*
X118635000Y-88903601D03*
D27*
X130659893Y-103086601D03*
X130659893Y-102586601D03*
X130659893Y-102086601D03*
X130659893Y-101586601D03*
X130659893Y-101086601D03*
X130659893Y-100586601D03*
X130659893Y-100086601D03*
X130659893Y-99586601D03*
X130659893Y-99086601D03*
X130659893Y-98586601D03*
X130659893Y-98086601D03*
X130659893Y-97586601D03*
D28*
X129247393Y-96174101D03*
X128747393Y-96174101D03*
X128247393Y-96174101D03*
X127747393Y-96174101D03*
X127247393Y-96174101D03*
X126747393Y-96174101D03*
X126247393Y-96174101D03*
X125747393Y-96174101D03*
X125247393Y-96174101D03*
X124747393Y-96174101D03*
X124247393Y-96174101D03*
X123747393Y-96174101D03*
D27*
X122334893Y-97586601D03*
X122334893Y-98086601D03*
X122334893Y-98586601D03*
X122334893Y-99086601D03*
X122334893Y-99586601D03*
X122334893Y-100086601D03*
X122334893Y-100586601D03*
X122334893Y-101086601D03*
X122334893Y-101586601D03*
X122334893Y-102086601D03*
X122334893Y-102586601D03*
X122334893Y-103086601D03*
D28*
X123747393Y-104499101D03*
X124247393Y-104499101D03*
X124747393Y-104499101D03*
X125247393Y-104499101D03*
X125747393Y-104499101D03*
X126247393Y-104499101D03*
X126747393Y-104499101D03*
X127247393Y-104499101D03*
X127747393Y-104499101D03*
X128247393Y-104499101D03*
X128747393Y-104499101D03*
X129247393Y-104499101D03*
D29*
X118257593Y-105186601D03*
X118257593Y-96436601D03*
X133782593Y-88711601D03*
X135682593Y-88711601D03*
X118257593Y-92836601D03*
X136432593Y-89861601D03*
X138232593Y-93736601D03*
X134007593Y-103011601D03*
X114782593Y-91286601D03*
X134832593Y-108486601D03*
X119732593Y-109611601D03*
X134800000Y-109486601D03*
X129407593Y-100086601D03*
X135682593Y-87686601D03*
X138607593Y-94886601D03*
X121081593Y-106101301D03*
X134007593Y-106336601D03*
X117257593Y-92836601D03*
X112957593Y-91286601D03*
X132132593Y-97711601D03*
X132607593Y-89686601D03*
X134257593Y-107486601D03*
X134307593Y-95686601D03*
X120471993Y-107064601D03*
X134007593Y-101886601D03*
X134007593Y-104161601D03*
X133782593Y-87686601D03*
X135257593Y-95061601D03*
X120649793Y-100054201D03*
X112832593Y-97436601D03*
X138281000Y-84006000D03*
X132507593Y-96761601D03*
X117232593Y-105186601D03*
X133257593Y-95711601D03*
X131002593Y-104733801D03*
X132282593Y-93686601D03*
X134007593Y-105236601D03*
X134007593Y-100761601D03*
X120675193Y-101070201D03*
X119913193Y-108182201D03*
X116307593Y-101436601D03*
X116307593Y-99511601D03*
D30*
X118257593Y-91611601D02*
X118257593Y-92836601D01*
X132345393Y-103018601D02*
X132345393Y-104161601D01*
X132890193Y-106544201D02*
X132890193Y-107976601D01*
X132345393Y-104161601D02*
X132345393Y-105999401D01*
X117615000Y-83188601D02*
X117615000Y-84331601D01*
X132882593Y-109261601D02*
X132882593Y-107984201D01*
X131557593Y-101586601D02*
X131846593Y-101875601D01*
X135406200Y-91281600D02*
X135406200Y-89662994D01*
X134006200Y-89810208D02*
X133782593Y-89586601D01*
X132307593Y-101086601D02*
X132332593Y-101061601D01*
X135406200Y-93694994D02*
X135371593Y-93729601D01*
X131846593Y-101875601D02*
X132345393Y-101875601D01*
X117615000Y-86617601D02*
X117615000Y-87760601D01*
X117615000Y-90969008D02*
X118257593Y-91611601D01*
X117615000Y-88903601D02*
X117615000Y-90046601D01*
X130659893Y-101586601D02*
X131557593Y-101586601D01*
X132107593Y-100586601D02*
X132332593Y-100811601D01*
D31*
X118267593Y-114696601D02*
X119032593Y-115461601D01*
D30*
X114328593Y-96436601D02*
X118257593Y-96436601D01*
D31*
X118267593Y-105196601D02*
X118257593Y-105186601D01*
D30*
X132332593Y-101862801D02*
X132345393Y-101875601D01*
D31*
X119032593Y-115461601D02*
X132607593Y-115461601D01*
X133507593Y-114561601D02*
X133507593Y-113143601D01*
D30*
X133782593Y-89586601D02*
X133782593Y-88711601D01*
X132882593Y-107984201D02*
X132890193Y-107976601D01*
X117615000Y-85474601D02*
X117615000Y-86617601D01*
X132345393Y-101875601D02*
X132345393Y-103018601D01*
X117615000Y-90046601D02*
X117615000Y-90969008D01*
D31*
X118267593Y-113270601D02*
X118267593Y-114696601D01*
D30*
X134006200Y-91281600D02*
X134006200Y-89810208D01*
X133107593Y-109486601D02*
X132882593Y-109261601D01*
X134006200Y-91281600D02*
X134006200Y-93317994D01*
X134006200Y-93317994D02*
X133987593Y-93336601D01*
X117615000Y-82045601D02*
X117615000Y-83188601D01*
X132332593Y-100811601D02*
X132332593Y-101061601D01*
X135406200Y-89662994D02*
X135682593Y-89386601D01*
X130659893Y-101086601D02*
X132307593Y-101086601D01*
X133507593Y-113143601D02*
X133507593Y-109486601D01*
X133507593Y-109486601D02*
X133107593Y-109486601D01*
X132332593Y-101061601D02*
X132332593Y-101862801D01*
X135682593Y-89386601D02*
X135682593Y-88711601D01*
D31*
X132607593Y-115461601D02*
X133507593Y-114561601D01*
D30*
X130659893Y-100586601D02*
X132107593Y-100586601D01*
X135406200Y-91281600D02*
X135406200Y-93694994D01*
D31*
X118267593Y-113270601D02*
X118267593Y-105196601D01*
D30*
X117615000Y-84331601D02*
X117615000Y-85474601D01*
X132345393Y-105999401D02*
X132890193Y-106544201D01*
X117615000Y-87760601D02*
X117615000Y-88903601D01*
X130659893Y-100086601D02*
X129407593Y-100086601D01*
X119018593Y-109604601D02*
X119725593Y-109604601D01*
X132516793Y-96752401D02*
X132507593Y-96761601D01*
X133282593Y-100760401D02*
X134006393Y-100760401D01*
X134000593Y-103018601D02*
X134007593Y-103011601D01*
X130987593Y-104748801D02*
X131002593Y-104733801D01*
X132632593Y-93336601D02*
X132282593Y-93686601D01*
X138225593Y-93729601D02*
X138232593Y-93736601D01*
X132606200Y-91281600D02*
X132606200Y-89687994D01*
X112955593Y-90554601D02*
X112955593Y-91284601D01*
X133996593Y-101875601D02*
X134007593Y-101886601D01*
X136106200Y-90187994D02*
X136432593Y-89861601D01*
X138275000Y-84000000D02*
X138281000Y-84006000D01*
X133027593Y-93336601D02*
X132632593Y-93336601D01*
X121081593Y-105386301D02*
X121081593Y-106101301D01*
X137271593Y-93729601D02*
X138225593Y-93729601D01*
X132606200Y-89687994D02*
X132607593Y-89686601D01*
X133282593Y-96752401D02*
X132516793Y-96752401D01*
X114784993Y-91284201D02*
X114782593Y-91286601D01*
X138275000Y-82525000D02*
X138275000Y-84000000D01*
X114328593Y-97436601D02*
X112832593Y-97436601D01*
X114784993Y-90554601D02*
X114784993Y-91284201D01*
X136106200Y-91281600D02*
X136106200Y-90187994D01*
X133305393Y-103018601D02*
X134000593Y-103018601D01*
X119725593Y-109604601D02*
X119732593Y-109611601D01*
X134006393Y-100760401D02*
X134007593Y-100761601D01*
X133305393Y-104161601D02*
X134007593Y-104161601D01*
X130987593Y-105411601D02*
X130987593Y-104748801D01*
X134207593Y-109486601D02*
X134800000Y-109486601D01*
X133305393Y-101875601D02*
X133996593Y-101875601D01*
X112955593Y-91284601D02*
X112957593Y-91286601D01*
X132796393Y-99800401D02*
X133282593Y-99800401D01*
X134221393Y-99800401D02*
X133282593Y-99800401D01*
X136782593Y-100986601D02*
X136345093Y-100549101D01*
X130659893Y-99586601D02*
X132582593Y-99586601D01*
X135645093Y-100549101D02*
X134907593Y-99811601D01*
X134232593Y-99811601D02*
X134221393Y-99800401D01*
X134907593Y-99811601D02*
X134232593Y-99811601D01*
X136782593Y-106211601D02*
X136782593Y-100986601D01*
X136345093Y-100549101D02*
X135645093Y-100549101D01*
X132582593Y-99586601D02*
X132796393Y-99800401D01*
X133282593Y-97712401D02*
X133283393Y-97711601D01*
X133284593Y-97714401D02*
X133282593Y-97712401D01*
X133284593Y-98756401D02*
X133284593Y-97714401D01*
X133283393Y-97711601D02*
X136782593Y-97711601D01*
X131114793Y-107217201D02*
X130987593Y-107090001D01*
X131140193Y-107976601D02*
X131140193Y-107217201D01*
X131140193Y-107217201D02*
X131114793Y-107217201D01*
X130987593Y-107090001D02*
X130987593Y-106431601D01*
X127747393Y-108853601D02*
X128507593Y-109613801D01*
X128507593Y-109613801D02*
X128507593Y-113143601D01*
X127747393Y-104499101D02*
X127747393Y-108853601D01*
X131007593Y-111402601D02*
X131007593Y-113143601D01*
X128247393Y-108642401D02*
X131007593Y-111402601D01*
X128247393Y-104499101D02*
X128247393Y-108642401D01*
X120691593Y-101086601D02*
X122334893Y-101086601D01*
X120675193Y-101070201D02*
X120691593Y-101086601D01*
X122376993Y-106709001D02*
X122376993Y-104423001D01*
X123560393Y-99586601D02*
X122334893Y-99586601D01*
X122376993Y-104423001D02*
X123900993Y-102899001D01*
X120903793Y-108182201D02*
X122376993Y-106709001D01*
X119913193Y-108182201D02*
X120903793Y-108182201D01*
X123900993Y-99927201D02*
X123560393Y-99586601D01*
X123900993Y-102899001D02*
X123900993Y-99927201D01*
X120182593Y-102586601D02*
X122334893Y-102586601D01*
X117107593Y-99511601D02*
X120182593Y-102586601D01*
X116307593Y-99511601D02*
X117107593Y-99511601D01*
X114328593Y-101436601D02*
X116307593Y-101436601D01*
X120382593Y-103086601D02*
X122334893Y-103086601D01*
X121081593Y-104366301D02*
X121081593Y-103101301D01*
X114328593Y-100436601D02*
X117057593Y-100436601D01*
X119707593Y-103086601D02*
X120382593Y-103086601D01*
X117057593Y-100436601D02*
X119707593Y-103086601D01*
X119757593Y-98436601D02*
X114328593Y-98436601D01*
X121007593Y-94536601D02*
X122257593Y-95786601D01*
X130659893Y-98586601D02*
X124757593Y-98586601D01*
X116807593Y-94536601D02*
X121007593Y-94536601D01*
X124757593Y-98586601D02*
X123132593Y-96961601D01*
X115732593Y-93461601D02*
X116807593Y-94536601D01*
X123132593Y-96961601D02*
X122257593Y-96961601D01*
X115732593Y-90567001D02*
X115732593Y-93461601D01*
X115742593Y-82451601D02*
X115742593Y-88751601D01*
X122257593Y-96961601D02*
X121232593Y-96961601D01*
X115744993Y-90554601D02*
X115732593Y-90567001D01*
X122257593Y-95786601D02*
X122257593Y-96961601D01*
X121232593Y-96961601D02*
X119757593Y-98436601D01*
X115742593Y-90552201D02*
X115744993Y-90554601D01*
X115742593Y-88751601D02*
X115742593Y-90552201D01*
X121482593Y-89711601D02*
X121147593Y-90046601D01*
X123747393Y-93071801D02*
X123747393Y-96174101D01*
X121147593Y-90046601D02*
X118635000Y-90046601D01*
X124206200Y-91281600D02*
X124206200Y-92612994D01*
X124206200Y-91281600D02*
X124206200Y-89935208D01*
X123982593Y-89711601D02*
X121482593Y-89711601D01*
X124206200Y-89935208D02*
X123982593Y-89711601D01*
X124206200Y-92612994D02*
X123747393Y-93071801D01*
X124324593Y-88903601D02*
X118635000Y-88903601D01*
X124906200Y-89485208D02*
X124324593Y-88903601D01*
X124906200Y-91281600D02*
X124906200Y-89485208D01*
X124247393Y-93296801D02*
X124247393Y-96174101D01*
X124906200Y-92637994D02*
X124247393Y-93296801D01*
X124906200Y-91281600D02*
X124906200Y-92637994D01*
X125606200Y-88785208D02*
X124581593Y-87760601D01*
X125606200Y-91281600D02*
X125606200Y-92662994D01*
X125606200Y-92662994D02*
X124747393Y-93521801D01*
X124747393Y-93521801D02*
X124747393Y-96174101D01*
X124581593Y-87760601D02*
X118635000Y-87760601D01*
X125606200Y-91281600D02*
X125606200Y-88785208D01*
X126306200Y-91281600D02*
X126306200Y-87635208D01*
X126306200Y-91281600D02*
X126306200Y-92687994D01*
X118641000Y-86611601D02*
X118635000Y-86617601D01*
X125282593Y-86611601D02*
X118641000Y-86611601D01*
X126306200Y-87635208D02*
X125282593Y-86611601D01*
X125247393Y-93746801D02*
X125247393Y-96174101D01*
X126306200Y-92687994D02*
X125247393Y-93746801D01*
X125747393Y-93971801D02*
X125747393Y-96174101D01*
X127006200Y-91281600D02*
X127006200Y-92712994D01*
X118648000Y-85461601D02*
X118635000Y-85474601D01*
X127006200Y-86310208D02*
X126157593Y-85461601D01*
X127006200Y-91281600D02*
X127006200Y-86310208D01*
X127006200Y-92712994D02*
X125747393Y-93971801D01*
X126157593Y-85461601D02*
X118648000Y-85461601D01*
X126247393Y-94196801D02*
X126247393Y-96174101D01*
X127706200Y-91281600D02*
X127706200Y-85460208D01*
X127706200Y-92737994D02*
X126247393Y-94196801D01*
X127706200Y-85460208D02*
X126577593Y-84331601D01*
X126577593Y-84331601D02*
X118635000Y-84331601D01*
X127706200Y-91281600D02*
X127706200Y-92737994D01*
X126607593Y-83186601D02*
X118637000Y-83186601D01*
X128406200Y-92762994D02*
X126747393Y-94421801D01*
X128406200Y-84985208D02*
X126607593Y-83186601D01*
X118637000Y-83186601D02*
X118635000Y-83188601D01*
X126747393Y-94421801D02*
X126747393Y-96174101D01*
X128406200Y-91281600D02*
X128406200Y-84985208D01*
X128406200Y-91281600D02*
X128406200Y-92762994D01*
X129106200Y-83760208D02*
X127391593Y-82045601D01*
X129106200Y-91281600D02*
X129106200Y-83760208D01*
X127391593Y-82045601D02*
X118635000Y-82045601D01*
X129106200Y-92787994D02*
X127247393Y-94646801D01*
X129106200Y-91281600D02*
X129106200Y-92787994D01*
X127247393Y-94646801D02*
X127247393Y-96174101D01*
X127747393Y-94871801D02*
X127747393Y-96174101D01*
X129806200Y-91281600D02*
X129806200Y-92812994D01*
X129806200Y-92812994D02*
X127747393Y-94871801D01*
X130506200Y-92837994D02*
X128247393Y-95096801D01*
X128247393Y-95096801D02*
X128247393Y-96174101D01*
X130506200Y-91281600D02*
X130506200Y-92837994D01*
X128747393Y-95321801D02*
X128747393Y-96174101D01*
X131206200Y-92862994D02*
X128747393Y-95321801D01*
X131206200Y-91281600D02*
X131206200Y-92862994D01*
X129247393Y-96174101D02*
X129770093Y-96174101D01*
X130257593Y-94536601D02*
X131906200Y-92887994D01*
X129770093Y-96174101D02*
X130257593Y-95686601D01*
X130257593Y-95686601D02*
X130257593Y-94536601D01*
X131906200Y-92887994D02*
X131906200Y-91281600D01*
X134706200Y-86879401D02*
X135030301Y-86555301D01*
X135300001Y-86285601D02*
X135030301Y-86555301D01*
X134706200Y-91281600D02*
X134706200Y-86879401D01*
X135300001Y-86285601D02*
X135300001Y-82550001D01*
X111942593Y-82451601D02*
X111942593Y-88751601D01*
X111942593Y-90547601D02*
X111935593Y-90554601D01*
X111942593Y-88751601D02*
X111942593Y-90547601D01*
X130659893Y-99086601D02*
X131932593Y-99086601D01*
X132262793Y-98756401D02*
X132264593Y-98756401D01*
X131932593Y-99086601D02*
X132262793Y-98756401D01*
M02*
