G04 #@! TF.GenerationSoftware,KiCad,Pcbnew,(6.0.2-0)*
G04 #@! TF.CreationDate,2022-09-17T18:07:09+02:00*
G04 #@! TF.ProjectId,ER-TFT1_69-1 Adapter,45522d54-4654-4315-9f36-392d31204164,rev?*
G04 #@! TF.SameCoordinates,Original*
G04 #@! TF.FileFunction,Paste,Top*
G04 #@! TF.FilePolarity,Positive*
%FSLAX46Y46*%
G04 Gerber Fmt 4.6, Leading zero omitted, Abs format (unit mm)*
G04 Created by KiCad (PCBNEW (6.0.2-0)) date 2022-09-17 18:07:09*
%MOMM*%
%LPD*%
G01*
G04 APERTURE LIST*
G04 Aperture macros list*
%AMRoundRect*
0 Rectangle with rounded corners*
0 $1 Rounding radius*
0 $2 $3 $4 $5 $6 $7 $8 $9 X,Y pos of 4 corners*
0 Add a 4 corners polygon primitive as box body*
4,1,4,$2,$3,$4,$5,$6,$7,$8,$9,$2,$3,0*
0 Add four circle primitives for the rounded corners*
1,1,$1+$1,$2,$3*
1,1,$1+$1,$4,$5*
1,1,$1+$1,$6,$7*
1,1,$1+$1,$8,$9*
0 Add four rect primitives between the rounded corners*
20,1,$1+$1,$2,$3,$4,$5,0*
20,1,$1+$1,$4,$5,$6,$7,0*
20,1,$1+$1,$6,$7,$8,$9,0*
20,1,$1+$1,$8,$9,$2,$3,0*%
G04 Aperture macros list end*
%ADD10RoundRect,0.135000X-0.135000X-0.185000X0.135000X-0.185000X0.135000X0.185000X-0.135000X0.185000X0*%
%ADD11RoundRect,0.135000X0.135000X0.185000X-0.135000X0.185000X-0.135000X-0.185000X0.135000X-0.185000X0*%
%ADD12R,2.000000X4.500000*%
%ADD13RoundRect,0.250000X-0.325000X-0.650000X0.325000X-0.650000X0.325000X0.650000X-0.325000X0.650000X0*%
%ADD14R,0.350000X2.000000*%
%ADD15RoundRect,0.135000X-0.185000X0.135000X-0.185000X-0.135000X0.185000X-0.135000X0.185000X0.135000X0*%
%ADD16RoundRect,0.140000X-0.140000X-0.170000X0.140000X-0.170000X0.140000X0.170000X-0.140000X0.170000X0*%
%ADD17RoundRect,0.140000X0.140000X0.170000X-0.140000X0.170000X-0.140000X-0.170000X0.140000X-0.170000X0*%
%ADD18RoundRect,0.140000X0.170000X-0.140000X0.170000X0.140000X-0.170000X0.140000X-0.170000X-0.140000X0*%
%ADD19RoundRect,0.100000X0.100000X0.250000X-0.100000X0.250000X-0.100000X-0.250000X0.100000X-0.250000X0*%
%ADD20RoundRect,0.237500X-0.287500X-0.237500X0.287500X-0.237500X0.287500X0.237500X-0.287500X0.237500X0*%
%ADD21RoundRect,0.250000X-0.250000X-0.475000X0.250000X-0.475000X0.250000X0.475000X-0.250000X0.475000X0*%
%ADD22R,3.000000X3.000000*%
%ADD23R,1.800000X0.600000*%
%ADD24R,1.000000X1.700000*%
%ADD25RoundRect,0.075000X0.662500X0.075000X-0.662500X0.075000X-0.662500X-0.075000X0.662500X-0.075000X0*%
%ADD26RoundRect,0.075000X0.075000X0.662500X-0.075000X0.662500X-0.075000X-0.662500X0.075000X-0.662500X0*%
G04 APERTURE END LIST*
D10*
X117615000Y-84331601D03*
X118635000Y-84331601D03*
X117615000Y-86617601D03*
X118635000Y-86617601D03*
D11*
X133284593Y-98756401D03*
X132264593Y-98756401D03*
D12*
X136782593Y-106211601D03*
X136782593Y-97711601D03*
D10*
X117615000Y-82045601D03*
X118635000Y-82045601D03*
D13*
X135325000Y-82525000D03*
X138275000Y-82525000D03*
D14*
X124206200Y-91281600D03*
X124906200Y-91281600D03*
X125606200Y-91281600D03*
X126306200Y-91281600D03*
X127006200Y-91281600D03*
X127706200Y-91281600D03*
X128406200Y-91281600D03*
X129106200Y-91281600D03*
X129806200Y-91281600D03*
X130506200Y-91281600D03*
X131206200Y-91281600D03*
X131906200Y-91281600D03*
X132606200Y-91281600D03*
X133306200Y-91281600D03*
X134006200Y-91281600D03*
X134706200Y-91281600D03*
X135406200Y-91281600D03*
X136106200Y-91281600D03*
D15*
X130987593Y-105411601D03*
X130987593Y-106431601D03*
D10*
X117615000Y-85474601D03*
X118635000Y-85474601D03*
D16*
X132345393Y-104161601D03*
X133305393Y-104161601D03*
D10*
X111935593Y-90554601D03*
X112955593Y-90554601D03*
D17*
X115744993Y-90554601D03*
X114784993Y-90554601D03*
D10*
X117615000Y-83188601D03*
X118635000Y-83188601D03*
D18*
X133282593Y-100760401D03*
X133282593Y-99800401D03*
D19*
X119018593Y-109604601D03*
X118318593Y-109604601D03*
D20*
X131140193Y-107976601D03*
X132890193Y-107976601D03*
D19*
X134207593Y-109486601D03*
X133507593Y-109486601D03*
D21*
X135371593Y-93729601D03*
X137271593Y-93729601D03*
D16*
X132345393Y-103018601D03*
X133305393Y-103018601D03*
D22*
X112158593Y-94086601D03*
X112158593Y-103786601D03*
D23*
X114328593Y-96436601D03*
X114328593Y-97436601D03*
X114328593Y-98436601D03*
X114328593Y-99436601D03*
X114328593Y-100436601D03*
X114328593Y-101436601D03*
D24*
X115742593Y-88751601D03*
X115742593Y-82451601D03*
X111942593Y-82451601D03*
X111942593Y-88751601D03*
D17*
X133987593Y-93336601D03*
X133027593Y-93336601D03*
D15*
X121081593Y-104366301D03*
X121081593Y-105386301D03*
D18*
X133282593Y-97712401D03*
X133282593Y-96752401D03*
D10*
X117615000Y-90046601D03*
X118635000Y-90046601D03*
X117615000Y-87760601D03*
X118635000Y-87760601D03*
D16*
X132345393Y-101875601D03*
X133305393Y-101875601D03*
D10*
X117615000Y-88903601D03*
X118635000Y-88903601D03*
D25*
X130659893Y-103086601D03*
X130659893Y-102586601D03*
X130659893Y-102086601D03*
X130659893Y-101586601D03*
X130659893Y-101086601D03*
X130659893Y-100586601D03*
X130659893Y-100086601D03*
X130659893Y-99586601D03*
X130659893Y-99086601D03*
X130659893Y-98586601D03*
X130659893Y-98086601D03*
X130659893Y-97586601D03*
D26*
X129247393Y-96174101D03*
X128747393Y-96174101D03*
X128247393Y-96174101D03*
X127747393Y-96174101D03*
X127247393Y-96174101D03*
X126747393Y-96174101D03*
X126247393Y-96174101D03*
X125747393Y-96174101D03*
X125247393Y-96174101D03*
X124747393Y-96174101D03*
X124247393Y-96174101D03*
X123747393Y-96174101D03*
D25*
X122334893Y-97586601D03*
X122334893Y-98086601D03*
X122334893Y-98586601D03*
X122334893Y-99086601D03*
X122334893Y-99586601D03*
X122334893Y-100086601D03*
X122334893Y-100586601D03*
X122334893Y-101086601D03*
X122334893Y-101586601D03*
X122334893Y-102086601D03*
X122334893Y-102586601D03*
X122334893Y-103086601D03*
D26*
X123747393Y-104499101D03*
X124247393Y-104499101D03*
X124747393Y-104499101D03*
X125247393Y-104499101D03*
X125747393Y-104499101D03*
X126247393Y-104499101D03*
X126747393Y-104499101D03*
X127247393Y-104499101D03*
X127747393Y-104499101D03*
X128247393Y-104499101D03*
X128747393Y-104499101D03*
X129247393Y-104499101D03*
M02*
