G04 #@! TF.GenerationSoftware,KiCad,Pcbnew,(6.0.2-0)*
G04 #@! TF.CreationDate,2022-09-17T18:07:09+02:00*
G04 #@! TF.ProjectId,ER-TFT1_69-1 Adapter,45522d54-4654-4315-9f36-392d31204164,rev?*
G04 #@! TF.SameCoordinates,Original*
G04 #@! TF.FileFunction,Copper,L4,Bot*
G04 #@! TF.FilePolarity,Positive*
%FSLAX46Y46*%
G04 Gerber Fmt 4.6, Leading zero omitted, Abs format (unit mm)*
G04 Created by KiCad (PCBNEW (6.0.2-0)) date 2022-09-17 18:07:09*
%MOMM*%
%LPD*%
G01*
G04 APERTURE LIST*
G04 Aperture macros list*
%AMRoundRect*
0 Rectangle with rounded corners*
0 $1 Rounding radius*
0 $2 $3 $4 $5 $6 $7 $8 $9 X,Y pos of 4 corners*
0 Add a 4 corners polygon primitive as box body*
4,1,4,$2,$3,$4,$5,$6,$7,$8,$9,$2,$3,0*
0 Add four circle primitives for the rounded corners*
1,1,$1+$1,$2,$3*
1,1,$1+$1,$4,$5*
1,1,$1+$1,$6,$7*
1,1,$1+$1,$8,$9*
0 Add four rect primitives between the rounded corners*
20,1,$1+$1,$2,$3,$4,$5,0*
20,1,$1+$1,$4,$5,$6,$7,0*
20,1,$1+$1,$6,$7,$8,$9,0*
20,1,$1+$1,$8,$9,$2,$3,0*%
G04 Aperture macros list end*
G04 #@! TA.AperFunction,ComponentPad*
%ADD10RoundRect,0.250000X-0.600000X-0.725000X0.600000X-0.725000X0.600000X0.725000X-0.600000X0.725000X0*%
G04 #@! TD*
G04 #@! TA.AperFunction,ComponentPad*
%ADD11O,1.700000X1.950000*%
G04 #@! TD*
G04 #@! TA.AperFunction,ViaPad*
%ADD12C,0.800000*%
G04 #@! TD*
G04 #@! TA.AperFunction,Conductor*
%ADD13C,0.500000*%
G04 #@! TD*
G04 #@! TA.AperFunction,Conductor*
%ADD14C,0.300000*%
G04 #@! TD*
G04 APERTURE END LIST*
D10*
X113267593Y-113143601D03*
D11*
X115767593Y-113143601D03*
X118267593Y-113143601D03*
X120767593Y-113143601D03*
D10*
X128507593Y-113143601D03*
D11*
X131007593Y-113143601D03*
X133507593Y-113143601D03*
X136007593Y-113143601D03*
D12*
X118257593Y-105186601D03*
X118257593Y-96436601D03*
X133782593Y-88711601D03*
X135682593Y-88711601D03*
X118257593Y-92836601D03*
X136432593Y-89861601D03*
X138232593Y-93736601D03*
X134007593Y-103011601D03*
X114782593Y-91286601D03*
X134832593Y-108486601D03*
X119732593Y-109611601D03*
X134800000Y-109486601D03*
X129407593Y-100086601D03*
X135682593Y-87686601D03*
X138607593Y-94886601D03*
X121081593Y-106101301D03*
X134007593Y-106336601D03*
X117257593Y-92836601D03*
X112957593Y-91286601D03*
X132132593Y-97711601D03*
X132607593Y-89686601D03*
X134257593Y-107486601D03*
X134307593Y-95686601D03*
X120471993Y-107064601D03*
X134007593Y-101886601D03*
X134007593Y-104161601D03*
X133782593Y-87686601D03*
X135257593Y-95061601D03*
X120649793Y-100054201D03*
X112832593Y-97436601D03*
X138281000Y-84006000D03*
X132507593Y-96761601D03*
X117232593Y-105186601D03*
X133257593Y-95711601D03*
X131002593Y-104733801D03*
X132282593Y-93686601D03*
X134007593Y-105236601D03*
X134007593Y-100761601D03*
X120675193Y-101070201D03*
X119913193Y-108182201D03*
X116307593Y-101436601D03*
X116307593Y-99511601D03*
D13*
X122957593Y-91011601D02*
X125257593Y-88711601D01*
X121257593Y-91911601D02*
X122057593Y-91911601D01*
X118257593Y-105186601D02*
X118257593Y-96436601D01*
X133782593Y-88711601D02*
X135682593Y-88711601D01*
X119182593Y-91911601D02*
X121257593Y-91911601D01*
X118257593Y-96436601D02*
X118257593Y-92836601D01*
X118257593Y-92836601D02*
X119182593Y-91911601D01*
X130307593Y-88711601D02*
X133782593Y-88711601D01*
X122057593Y-91911601D02*
X122957593Y-91011601D01*
X125257593Y-88711601D02*
X130307593Y-88711601D01*
D14*
X119836993Y-106480401D02*
X119176593Y-107140801D01*
X119176593Y-107140801D02*
X114629993Y-107140801D01*
X119836993Y-101908401D02*
X119836993Y-106480401D01*
X120675193Y-101070201D02*
X119836993Y-101908401D01*
X114629993Y-107140801D02*
X113267593Y-108503201D01*
X113267593Y-108503201D02*
X113267593Y-113143601D01*
X117246193Y-108182201D02*
X119913193Y-108182201D01*
X115772993Y-109807801D02*
X115772993Y-109655401D01*
X115772993Y-109655401D02*
X116712793Y-108715601D01*
X115767593Y-113143601D02*
X115772993Y-113138201D01*
X116712793Y-108715601D02*
X117246193Y-108182201D01*
X115772993Y-113138201D02*
X115772993Y-109807801D01*
X116307593Y-101436601D02*
X116307593Y-99511601D01*
M02*
