%FSLAX45Y45*%
G04 Gerber Fmt 4.5, Leading zero omitted, Abs format (unit mm)*
G04 Created by KiCad (PCBNEW (6.0.2-0)) date 2022-09-17 18:07:15*
%MOMM*%
%LPD*%
G01*
G04 APERTURE LIST*
%TA.AperFunction,Profile*%
%ADD10C,0.100000*%
%TD*%
%ADD11C,0.200000*%
%ADD12C,0.040000*%
%ADD13C,0.095000*%
G04 APERTURE END LIST*
D10*
X11000000Y-11600000D02*
G75*
G03*
X11150000Y-11750000I150000J0D01*
G01*
X11000000Y-8150000D02*
X11000000Y-11600000D01*
X13850000Y-11750000D02*
G75*
G03*
X14000000Y-11600000I0J150000D01*
G01*
X13850000Y-8000000D02*
X11150000Y-8000000D01*
X11150000Y-8000000D02*
G75*
G03*
X11000000Y-8150000I0J-150000D01*
G01*
X14000000Y-11600000D02*
X14000000Y-8150000D01*
X14000000Y-8150000D02*
G75*
G03*
X13850000Y-8000000I-150000J0D01*
G01*
X11150000Y-11750000D02*
X13850000Y-11750000D01*
D11*
D12*
X11263259Y-9723660D02*
X11303259Y-9763660D01*
X11303259Y-9723660D02*
X11263259Y-9763660D01*
X11275759Y-9108660D02*
X11315759Y-9148660D01*
X11315759Y-9108660D02*
X11275759Y-9148660D01*
X11458259Y-9108660D02*
X11498259Y-9148660D01*
X11498259Y-9108660D02*
X11458259Y-9148660D01*
X11610759Y-9931160D02*
X11650759Y-9971160D01*
X11650759Y-9931160D02*
X11610759Y-9971160D01*
X11610759Y-10123660D02*
X11650759Y-10163660D01*
X11650759Y-10123660D02*
X11610759Y-10163660D01*
X11703259Y-10498660D02*
X11743259Y-10538660D01*
X11743259Y-10498660D02*
X11703259Y-10538660D01*
X11705759Y-9263660D02*
X11745759Y-9303660D01*
X11745759Y-9263660D02*
X11705759Y-9303660D01*
X11805759Y-9263660D02*
X11845759Y-9303660D01*
X11845759Y-9263660D02*
X11805759Y-9303660D01*
X11805759Y-9623660D02*
X11845759Y-9663660D01*
X11845759Y-9623660D02*
X11805759Y-9663660D01*
X11805759Y-10498660D02*
X11845759Y-10538660D01*
X11845759Y-10498660D02*
X11805759Y-10538660D01*
X11953259Y-10941160D02*
X11993259Y-10981160D01*
X11993259Y-10941160D02*
X11953259Y-10981160D01*
X11971319Y-10798220D02*
X12011319Y-10838220D01*
X12011319Y-10798220D02*
X11971319Y-10838220D01*
X12027199Y-10686460D02*
X12067199Y-10726460D01*
X12067199Y-10686460D02*
X12027199Y-10726460D01*
X12044979Y-9985420D02*
X12084979Y-10025420D01*
X12084979Y-9985420D02*
X12044979Y-10025420D01*
X12047519Y-10087020D02*
X12087519Y-10127020D01*
X12087519Y-10087020D02*
X12047519Y-10127020D01*
X12088159Y-10590130D02*
X12128159Y-10630130D01*
X12128159Y-10590130D02*
X12088159Y-10630130D01*
X12920759Y-9988660D02*
X12960759Y-10028660D01*
X12960759Y-9988660D02*
X12920759Y-10028660D01*
X13080259Y-10453380D02*
X13120259Y-10493380D01*
X13120259Y-10453380D02*
X13080259Y-10493380D01*
X13193259Y-9751160D02*
X13233259Y-9791160D01*
X13233259Y-9751160D02*
X13193259Y-9791160D01*
X13208259Y-9348660D02*
X13248259Y-9388660D01*
X13248259Y-9348660D02*
X13208259Y-9388660D01*
X13230759Y-9656160D02*
X13270759Y-9696160D01*
X13270759Y-9656160D02*
X13230759Y-9696160D01*
X13240759Y-8948660D02*
X13280759Y-8988660D01*
X13280759Y-8948660D02*
X13240759Y-8988660D01*
X13305759Y-9551160D02*
X13345759Y-9591160D01*
X13345759Y-9551160D02*
X13305759Y-9591160D01*
X13358259Y-8748660D02*
X13398259Y-8788660D01*
X13398259Y-8748660D02*
X13358259Y-8788660D01*
X13358259Y-8851160D02*
X13398259Y-8891160D01*
X13398259Y-8851160D02*
X13358259Y-8891160D01*
X13380759Y-10056160D02*
X13420759Y-10096160D01*
X13420759Y-10056160D02*
X13380759Y-10096160D01*
X13380759Y-10168660D02*
X13420759Y-10208660D01*
X13420759Y-10168660D02*
X13380759Y-10208660D01*
X13380759Y-10281160D02*
X13420759Y-10321160D01*
X13420759Y-10281160D02*
X13380759Y-10321160D01*
X13380759Y-10396160D02*
X13420759Y-10436160D01*
X13420759Y-10396160D02*
X13380759Y-10436160D01*
X13380759Y-10503660D02*
X13420759Y-10543660D01*
X13420759Y-10503660D02*
X13380759Y-10543660D01*
X13380759Y-10613660D02*
X13420759Y-10653660D01*
X13420759Y-10613660D02*
X13380759Y-10653660D01*
X13405759Y-10728660D02*
X13445759Y-10768660D01*
X13445759Y-10728660D02*
X13405759Y-10768660D01*
X13410759Y-9548660D02*
X13450759Y-9588660D01*
X13450759Y-9548660D02*
X13410759Y-9588660D01*
X13460000Y-10928660D02*
X13500000Y-10968660D01*
X13500000Y-10928660D02*
X13460000Y-10968660D01*
X13463259Y-10828660D02*
X13503259Y-10868660D01*
X13503259Y-10828660D02*
X13463259Y-10868660D01*
X13505759Y-9486160D02*
X13545759Y-9526160D01*
X13545759Y-9486160D02*
X13505759Y-9526160D01*
X13548259Y-8748660D02*
X13588259Y-8788660D01*
X13588259Y-8748660D02*
X13548259Y-8788660D01*
X13548259Y-8851160D02*
X13588259Y-8891160D01*
X13588259Y-8851160D02*
X13548259Y-8891160D01*
X13623259Y-8966160D02*
X13663259Y-9006160D01*
X13663259Y-8966160D02*
X13623259Y-9006160D01*
X13803259Y-9353660D02*
X13843259Y-9393660D01*
X13843259Y-9353660D02*
X13803259Y-9393660D01*
X13808100Y-8380600D02*
X13848100Y-8420600D01*
X13848100Y-8380600D02*
X13808100Y-8420600D01*
X13840759Y-9468660D02*
X13880759Y-9508660D01*
X13880759Y-9468660D02*
X13840759Y-9508660D01*
D13*
X11374259Y-11314360D02*
G75*
G03*
X11374259Y-11314360I-47500J0D01*
G01*
X11624259Y-11314360D02*
G75*
G03*
X11624259Y-11314360I-47500J0D01*
G01*
X11874259Y-11314360D02*
G75*
G03*
X11874259Y-11314360I-47500J0D01*
G01*
X12124259Y-11314360D02*
G75*
G03*
X12124259Y-11314360I-47500J0D01*
G01*
X12898259Y-11314360D02*
G75*
G03*
X12898259Y-11314360I-47500J0D01*
G01*
X13148259Y-11314360D02*
G75*
G03*
X13148259Y-11314360I-47500J0D01*
G01*
X13398259Y-11314360D02*
G75*
G03*
X13398259Y-11314360I-47500J0D01*
G01*
X13648259Y-11314360D02*
G75*
G03*
X13648259Y-11314360I-47500J0D01*
G01*
D11*
X11252619Y-12065476D02*
X11252619Y-11865476D01*
X11300238Y-11865476D01*
X11328809Y-11875000D01*
X11347857Y-11894048D01*
X11357381Y-11913095D01*
X11366905Y-11951190D01*
X11366905Y-11979762D01*
X11357381Y-12017857D01*
X11347857Y-12036905D01*
X11328809Y-12055952D01*
X11300238Y-12065476D01*
X11252619Y-12065476D01*
X11452619Y-12065476D02*
X11452619Y-11932143D01*
X11452619Y-11970238D02*
X11462143Y-11951190D01*
X11471667Y-11941667D01*
X11490714Y-11932143D01*
X11509762Y-11932143D01*
X11576428Y-12065476D02*
X11576428Y-11932143D01*
X11576428Y-11865476D02*
X11566905Y-11875000D01*
X11576428Y-11884524D01*
X11585952Y-11875000D01*
X11576428Y-11865476D01*
X11576428Y-11884524D01*
X11700238Y-12065476D02*
X11681190Y-12055952D01*
X11671667Y-12036905D01*
X11671667Y-11865476D01*
X11805000Y-12065476D02*
X11785952Y-12055952D01*
X11776428Y-12036905D01*
X11776428Y-11865476D01*
X12033571Y-12065476D02*
X12033571Y-11865476D01*
X12100238Y-12008333D01*
X12166905Y-11865476D01*
X12166905Y-12065476D01*
X12347857Y-12065476D02*
X12347857Y-11960714D01*
X12338333Y-11941667D01*
X12319286Y-11932143D01*
X12281190Y-11932143D01*
X12262143Y-11941667D01*
X12347857Y-12055952D02*
X12328809Y-12065476D01*
X12281190Y-12065476D01*
X12262143Y-12055952D01*
X12252619Y-12036905D01*
X12252619Y-12017857D01*
X12262143Y-11998809D01*
X12281190Y-11989286D01*
X12328809Y-11989286D01*
X12347857Y-11979762D01*
X12443095Y-11932143D02*
X12443095Y-12132143D01*
X12443095Y-11941667D02*
X12462143Y-11932143D01*
X12500238Y-11932143D01*
X12519286Y-11941667D01*
X12528809Y-11951190D01*
X12538333Y-11970238D01*
X12538333Y-12027381D01*
X12528809Y-12046428D01*
X12519286Y-12055952D01*
X12500238Y-12065476D01*
X12462143Y-12065476D01*
X12443095Y-12055952D01*
X12624048Y-12046428D02*
X12633571Y-12055952D01*
X12624048Y-12065476D01*
X12614524Y-12055952D01*
X12624048Y-12046428D01*
X12624048Y-12065476D01*
X12624048Y-11941667D02*
X12633571Y-11951190D01*
X12624048Y-11960714D01*
X12614524Y-11951190D01*
X12624048Y-11941667D01*
X12624048Y-11960714D01*
D12*
X10955000Y-12375000D02*
X10995000Y-12415000D01*
X10995000Y-12375000D02*
X10955000Y-12415000D01*
D11*
X11290714Y-12285476D02*
X11309762Y-12285476D01*
X11328809Y-12295000D01*
X11338333Y-12304524D01*
X11347857Y-12323571D01*
X11357381Y-12361667D01*
X11357381Y-12409286D01*
X11347857Y-12447381D01*
X11338333Y-12466428D01*
X11328809Y-12475952D01*
X11309762Y-12485476D01*
X11290714Y-12485476D01*
X11271667Y-12475952D01*
X11262143Y-12466428D01*
X11252619Y-12447381D01*
X11243095Y-12409286D01*
X11243095Y-12361667D01*
X11252619Y-12323571D01*
X11262143Y-12304524D01*
X11271667Y-12295000D01*
X11290714Y-12285476D01*
X11443095Y-12466428D02*
X11452619Y-12475952D01*
X11443095Y-12485476D01*
X11433571Y-12475952D01*
X11443095Y-12466428D01*
X11443095Y-12485476D01*
X11624048Y-12352143D02*
X11624048Y-12485476D01*
X11576428Y-12275952D02*
X11528809Y-12418809D01*
X11652619Y-12418809D01*
X11766905Y-12285476D02*
X11785952Y-12285476D01*
X11805000Y-12295000D01*
X11814524Y-12304524D01*
X11824048Y-12323571D01*
X11833571Y-12361667D01*
X11833571Y-12409286D01*
X11824048Y-12447381D01*
X11814524Y-12466428D01*
X11805000Y-12475952D01*
X11785952Y-12485476D01*
X11766905Y-12485476D01*
X11747857Y-12475952D01*
X11738333Y-12466428D01*
X11728809Y-12447381D01*
X11719286Y-12409286D01*
X11719286Y-12361667D01*
X11728809Y-12323571D01*
X11738333Y-12304524D01*
X11747857Y-12295000D01*
X11766905Y-12285476D01*
X11957381Y-12285476D02*
X11976428Y-12285476D01*
X11995476Y-12295000D01*
X12005000Y-12304524D01*
X12014524Y-12323571D01*
X12024048Y-12361667D01*
X12024048Y-12409286D01*
X12014524Y-12447381D01*
X12005000Y-12466428D01*
X11995476Y-12475952D01*
X11976428Y-12485476D01*
X11957381Y-12485476D01*
X11938333Y-12475952D01*
X11928809Y-12466428D01*
X11919286Y-12447381D01*
X11909762Y-12409286D01*
X11909762Y-12361667D01*
X11919286Y-12323571D01*
X11928809Y-12304524D01*
X11938333Y-12295000D01*
X11957381Y-12285476D01*
X12109762Y-12485476D02*
X12109762Y-12352143D01*
X12109762Y-12371190D02*
X12119286Y-12361667D01*
X12138333Y-12352143D01*
X12166905Y-12352143D01*
X12185952Y-12361667D01*
X12195476Y-12380714D01*
X12195476Y-12485476D01*
X12195476Y-12380714D02*
X12205000Y-12361667D01*
X12224048Y-12352143D01*
X12252619Y-12352143D01*
X12271667Y-12361667D01*
X12281190Y-12380714D01*
X12281190Y-12485476D01*
X12376428Y-12485476D02*
X12376428Y-12352143D01*
X12376428Y-12371190D02*
X12385952Y-12361667D01*
X12405000Y-12352143D01*
X12433571Y-12352143D01*
X12452619Y-12361667D01*
X12462143Y-12380714D01*
X12462143Y-12485476D01*
X12462143Y-12380714D02*
X12471667Y-12361667D01*
X12490714Y-12352143D01*
X12519286Y-12352143D01*
X12538333Y-12361667D01*
X12547857Y-12380714D01*
X12547857Y-12485476D01*
X12938333Y-12275952D02*
X12766905Y-12533095D01*
X13195476Y-12285476D02*
X13214524Y-12285476D01*
X13233571Y-12295000D01*
X13243095Y-12304524D01*
X13252619Y-12323571D01*
X13262143Y-12361667D01*
X13262143Y-12409286D01*
X13252619Y-12447381D01*
X13243095Y-12466428D01*
X13233571Y-12475952D01*
X13214524Y-12485476D01*
X13195476Y-12485476D01*
X13176428Y-12475952D01*
X13166905Y-12466428D01*
X13157381Y-12447381D01*
X13147857Y-12409286D01*
X13147857Y-12361667D01*
X13157381Y-12323571D01*
X13166905Y-12304524D01*
X13176428Y-12295000D01*
X13195476Y-12285476D01*
X13347857Y-12466428D02*
X13357381Y-12475952D01*
X13347857Y-12485476D01*
X13338333Y-12475952D01*
X13347857Y-12466428D01*
X13347857Y-12485476D01*
X13481190Y-12285476D02*
X13500238Y-12285476D01*
X13519286Y-12295000D01*
X13528809Y-12304524D01*
X13538333Y-12323571D01*
X13547857Y-12361667D01*
X13547857Y-12409286D01*
X13538333Y-12447381D01*
X13528809Y-12466428D01*
X13519286Y-12475952D01*
X13500238Y-12485476D01*
X13481190Y-12485476D01*
X13462143Y-12475952D01*
X13452619Y-12466428D01*
X13443095Y-12447381D01*
X13433571Y-12409286D01*
X13433571Y-12361667D01*
X13443095Y-12323571D01*
X13452619Y-12304524D01*
X13462143Y-12295000D01*
X13481190Y-12285476D01*
X13738333Y-12485476D02*
X13624048Y-12485476D01*
X13681190Y-12485476D02*
X13681190Y-12285476D01*
X13662143Y-12314048D01*
X13643095Y-12333095D01*
X13624048Y-12342619D01*
X13919286Y-12285476D02*
X13824048Y-12285476D01*
X13814524Y-12380714D01*
X13824048Y-12371190D01*
X13843095Y-12361667D01*
X13890714Y-12361667D01*
X13909762Y-12371190D01*
X13919286Y-12380714D01*
X13928809Y-12399762D01*
X13928809Y-12447381D01*
X13919286Y-12466428D01*
X13909762Y-12475952D01*
X13890714Y-12485476D01*
X13843095Y-12485476D01*
X13824048Y-12475952D01*
X13814524Y-12466428D01*
X13995476Y-12285476D02*
X14128809Y-12285476D01*
X14043095Y-12485476D01*
X14195476Y-12285476D02*
X14195476Y-12323571D01*
X14271667Y-12285476D02*
X14271667Y-12323571D01*
X14566905Y-12561667D02*
X14557381Y-12552143D01*
X14538333Y-12523571D01*
X14528809Y-12504524D01*
X14519286Y-12475952D01*
X14509762Y-12428333D01*
X14509762Y-12390238D01*
X14519286Y-12342619D01*
X14528809Y-12314048D01*
X14538333Y-12295000D01*
X14557381Y-12266428D01*
X14566905Y-12256905D01*
X14728809Y-12352143D02*
X14728809Y-12485476D01*
X14681190Y-12275952D02*
X14633571Y-12418809D01*
X14757381Y-12418809D01*
X14824048Y-12304524D02*
X14833571Y-12295000D01*
X14852619Y-12285476D01*
X14900238Y-12285476D01*
X14919286Y-12295000D01*
X14928809Y-12304524D01*
X14938333Y-12323571D01*
X14938333Y-12342619D01*
X14928809Y-12371190D01*
X14814524Y-12485476D01*
X14938333Y-12485476D01*
X15176428Y-12485476D02*
X15176428Y-12285476D01*
X15262143Y-12485476D02*
X15262143Y-12380714D01*
X15252619Y-12361667D01*
X15233571Y-12352143D01*
X15205000Y-12352143D01*
X15185952Y-12361667D01*
X15176428Y-12371190D01*
X15385952Y-12485476D02*
X15366905Y-12475952D01*
X15357381Y-12466428D01*
X15347857Y-12447381D01*
X15347857Y-12390238D01*
X15357381Y-12371190D01*
X15366905Y-12361667D01*
X15385952Y-12352143D01*
X15414524Y-12352143D01*
X15433571Y-12361667D01*
X15443095Y-12371190D01*
X15452619Y-12390238D01*
X15452619Y-12447381D01*
X15443095Y-12466428D01*
X15433571Y-12475952D01*
X15414524Y-12485476D01*
X15385952Y-12485476D01*
X15566905Y-12485476D02*
X15547857Y-12475952D01*
X15538333Y-12456905D01*
X15538333Y-12285476D01*
X15719286Y-12475952D02*
X15700238Y-12485476D01*
X15662143Y-12485476D01*
X15643095Y-12475952D01*
X15633571Y-12456905D01*
X15633571Y-12380714D01*
X15643095Y-12361667D01*
X15662143Y-12352143D01*
X15700238Y-12352143D01*
X15719286Y-12361667D01*
X15728809Y-12380714D01*
X15728809Y-12399762D01*
X15633571Y-12418809D01*
X15805000Y-12475952D02*
X15824048Y-12485476D01*
X15862143Y-12485476D01*
X15881190Y-12475952D01*
X15890714Y-12456905D01*
X15890714Y-12447381D01*
X15881190Y-12428333D01*
X15862143Y-12418809D01*
X15833571Y-12418809D01*
X15814524Y-12409286D01*
X15805000Y-12390238D01*
X15805000Y-12380714D01*
X15814524Y-12361667D01*
X15833571Y-12352143D01*
X15862143Y-12352143D01*
X15881190Y-12361667D01*
X15957381Y-12561667D02*
X15966905Y-12552143D01*
X15985952Y-12523571D01*
X15995476Y-12504524D01*
X16005000Y-12475952D01*
X16014524Y-12428333D01*
X16014524Y-12390238D01*
X16005000Y-12342619D01*
X15995476Y-12314048D01*
X15985952Y-12295000D01*
X15966905Y-12266428D01*
X15957381Y-12256905D01*
D13*
X10995000Y-12659000D02*
G75*
G03*
X10995000Y-12659000I-47500J0D01*
G01*
D11*
X11290714Y-12549476D02*
X11309762Y-12549476D01*
X11328809Y-12559000D01*
X11338333Y-12568524D01*
X11347857Y-12587571D01*
X11357381Y-12625667D01*
X11357381Y-12673286D01*
X11347857Y-12711381D01*
X11338333Y-12730428D01*
X11328809Y-12739952D01*
X11309762Y-12749476D01*
X11290714Y-12749476D01*
X11271667Y-12739952D01*
X11262143Y-12730428D01*
X11252619Y-12711381D01*
X11243095Y-12673286D01*
X11243095Y-12625667D01*
X11252619Y-12587571D01*
X11262143Y-12568524D01*
X11271667Y-12559000D01*
X11290714Y-12549476D01*
X11443095Y-12730428D02*
X11452619Y-12739952D01*
X11443095Y-12749476D01*
X11433571Y-12739952D01*
X11443095Y-12730428D01*
X11443095Y-12749476D01*
X11547857Y-12749476D02*
X11585952Y-12749476D01*
X11605000Y-12739952D01*
X11614524Y-12730428D01*
X11633571Y-12701857D01*
X11643095Y-12663762D01*
X11643095Y-12587571D01*
X11633571Y-12568524D01*
X11624048Y-12559000D01*
X11605000Y-12549476D01*
X11566905Y-12549476D01*
X11547857Y-12559000D01*
X11538333Y-12568524D01*
X11528809Y-12587571D01*
X11528809Y-12635190D01*
X11538333Y-12654238D01*
X11547857Y-12663762D01*
X11566905Y-12673286D01*
X11605000Y-12673286D01*
X11624048Y-12663762D01*
X11633571Y-12654238D01*
X11643095Y-12635190D01*
X11824048Y-12549476D02*
X11728809Y-12549476D01*
X11719286Y-12644714D01*
X11728809Y-12635190D01*
X11747857Y-12625667D01*
X11795476Y-12625667D01*
X11814524Y-12635190D01*
X11824048Y-12644714D01*
X11833571Y-12663762D01*
X11833571Y-12711381D01*
X11824048Y-12730428D01*
X11814524Y-12739952D01*
X11795476Y-12749476D01*
X11747857Y-12749476D01*
X11728809Y-12739952D01*
X11719286Y-12730428D01*
X11957381Y-12549476D02*
X11976428Y-12549476D01*
X11995476Y-12559000D01*
X12005000Y-12568524D01*
X12014524Y-12587571D01*
X12024048Y-12625667D01*
X12024048Y-12673286D01*
X12014524Y-12711381D01*
X12005000Y-12730428D01*
X11995476Y-12739952D01*
X11976428Y-12749476D01*
X11957381Y-12749476D01*
X11938333Y-12739952D01*
X11928809Y-12730428D01*
X11919286Y-12711381D01*
X11909762Y-12673286D01*
X11909762Y-12625667D01*
X11919286Y-12587571D01*
X11928809Y-12568524D01*
X11938333Y-12559000D01*
X11957381Y-12549476D01*
X12109762Y-12749476D02*
X12109762Y-12616143D01*
X12109762Y-12635190D02*
X12119286Y-12625667D01*
X12138333Y-12616143D01*
X12166905Y-12616143D01*
X12185952Y-12625667D01*
X12195476Y-12644714D01*
X12195476Y-12749476D01*
X12195476Y-12644714D02*
X12205000Y-12625667D01*
X12224048Y-12616143D01*
X12252619Y-12616143D01*
X12271667Y-12625667D01*
X12281190Y-12644714D01*
X12281190Y-12749476D01*
X12376428Y-12749476D02*
X12376428Y-12616143D01*
X12376428Y-12635190D02*
X12385952Y-12625667D01*
X12405000Y-12616143D01*
X12433571Y-12616143D01*
X12452619Y-12625667D01*
X12462143Y-12644714D01*
X12462143Y-12749476D01*
X12462143Y-12644714D02*
X12471667Y-12625667D01*
X12490714Y-12616143D01*
X12519286Y-12616143D01*
X12538333Y-12625667D01*
X12547857Y-12644714D01*
X12547857Y-12749476D01*
X12938333Y-12539952D02*
X12766905Y-12797095D01*
X13195476Y-12549476D02*
X13214524Y-12549476D01*
X13233571Y-12559000D01*
X13243095Y-12568524D01*
X13252619Y-12587571D01*
X13262143Y-12625667D01*
X13262143Y-12673286D01*
X13252619Y-12711381D01*
X13243095Y-12730428D01*
X13233571Y-12739952D01*
X13214524Y-12749476D01*
X13195476Y-12749476D01*
X13176428Y-12739952D01*
X13166905Y-12730428D01*
X13157381Y-12711381D01*
X13147857Y-12673286D01*
X13147857Y-12625667D01*
X13157381Y-12587571D01*
X13166905Y-12568524D01*
X13176428Y-12559000D01*
X13195476Y-12549476D01*
X13347857Y-12730428D02*
X13357381Y-12739952D01*
X13347857Y-12749476D01*
X13338333Y-12739952D01*
X13347857Y-12730428D01*
X13347857Y-12749476D01*
X13481190Y-12549476D02*
X13500238Y-12549476D01*
X13519286Y-12559000D01*
X13528809Y-12568524D01*
X13538333Y-12587571D01*
X13547857Y-12625667D01*
X13547857Y-12673286D01*
X13538333Y-12711381D01*
X13528809Y-12730428D01*
X13519286Y-12739952D01*
X13500238Y-12749476D01*
X13481190Y-12749476D01*
X13462143Y-12739952D01*
X13452619Y-12730428D01*
X13443095Y-12711381D01*
X13433571Y-12673286D01*
X13433571Y-12625667D01*
X13443095Y-12587571D01*
X13452619Y-12568524D01*
X13462143Y-12559000D01*
X13481190Y-12549476D01*
X13614524Y-12549476D02*
X13738333Y-12549476D01*
X13671667Y-12625667D01*
X13700238Y-12625667D01*
X13719286Y-12635190D01*
X13728809Y-12644714D01*
X13738333Y-12663762D01*
X13738333Y-12711381D01*
X13728809Y-12730428D01*
X13719286Y-12739952D01*
X13700238Y-12749476D01*
X13643095Y-12749476D01*
X13624048Y-12739952D01*
X13614524Y-12730428D01*
X13805000Y-12549476D02*
X13938333Y-12549476D01*
X13852619Y-12749476D01*
X14100238Y-12616143D02*
X14100238Y-12749476D01*
X14052619Y-12539952D02*
X14005000Y-12682809D01*
X14128809Y-12682809D01*
X14195476Y-12549476D02*
X14195476Y-12587571D01*
X14271667Y-12549476D02*
X14271667Y-12587571D01*
X14566905Y-12825667D02*
X14557381Y-12816143D01*
X14538333Y-12787571D01*
X14528809Y-12768524D01*
X14519286Y-12739952D01*
X14509762Y-12692333D01*
X14509762Y-12654238D01*
X14519286Y-12606619D01*
X14528809Y-12578048D01*
X14538333Y-12559000D01*
X14557381Y-12530428D01*
X14566905Y-12520905D01*
X14671667Y-12635190D02*
X14652619Y-12625667D01*
X14643095Y-12616143D01*
X14633571Y-12597095D01*
X14633571Y-12587571D01*
X14643095Y-12568524D01*
X14652619Y-12559000D01*
X14671667Y-12549476D01*
X14709762Y-12549476D01*
X14728809Y-12559000D01*
X14738333Y-12568524D01*
X14747857Y-12587571D01*
X14747857Y-12597095D01*
X14738333Y-12616143D01*
X14728809Y-12625667D01*
X14709762Y-12635190D01*
X14671667Y-12635190D01*
X14652619Y-12644714D01*
X14643095Y-12654238D01*
X14633571Y-12673286D01*
X14633571Y-12711381D01*
X14643095Y-12730428D01*
X14652619Y-12739952D01*
X14671667Y-12749476D01*
X14709762Y-12749476D01*
X14728809Y-12739952D01*
X14738333Y-12730428D01*
X14747857Y-12711381D01*
X14747857Y-12673286D01*
X14738333Y-12654238D01*
X14728809Y-12644714D01*
X14709762Y-12635190D01*
X14985952Y-12749476D02*
X14985952Y-12549476D01*
X15071667Y-12749476D02*
X15071667Y-12644714D01*
X15062143Y-12625667D01*
X15043095Y-12616143D01*
X15014524Y-12616143D01*
X14995476Y-12625667D01*
X14985952Y-12635190D01*
X15195476Y-12749476D02*
X15176428Y-12739952D01*
X15166905Y-12730428D01*
X15157381Y-12711381D01*
X15157381Y-12654238D01*
X15166905Y-12635190D01*
X15176428Y-12625667D01*
X15195476Y-12616143D01*
X15224048Y-12616143D01*
X15243095Y-12625667D01*
X15252619Y-12635190D01*
X15262143Y-12654238D01*
X15262143Y-12711381D01*
X15252619Y-12730428D01*
X15243095Y-12739952D01*
X15224048Y-12749476D01*
X15195476Y-12749476D01*
X15376428Y-12749476D02*
X15357381Y-12739952D01*
X15347857Y-12720905D01*
X15347857Y-12549476D01*
X15528809Y-12739952D02*
X15509762Y-12749476D01*
X15471667Y-12749476D01*
X15452619Y-12739952D01*
X15443095Y-12720905D01*
X15443095Y-12644714D01*
X15452619Y-12625667D01*
X15471667Y-12616143D01*
X15509762Y-12616143D01*
X15528809Y-12625667D01*
X15538333Y-12644714D01*
X15538333Y-12663762D01*
X15443095Y-12682809D01*
X15614524Y-12739952D02*
X15633571Y-12749476D01*
X15671667Y-12749476D01*
X15690714Y-12739952D01*
X15700238Y-12720905D01*
X15700238Y-12711381D01*
X15690714Y-12692333D01*
X15671667Y-12682809D01*
X15643095Y-12682809D01*
X15624048Y-12673286D01*
X15614524Y-12654238D01*
X15614524Y-12644714D01*
X15624048Y-12625667D01*
X15643095Y-12616143D01*
X15671667Y-12616143D01*
X15690714Y-12625667D01*
X15766905Y-12825667D02*
X15776428Y-12816143D01*
X15795476Y-12787571D01*
X15805000Y-12768524D01*
X15814524Y-12739952D01*
X15824048Y-12692333D01*
X15824048Y-12654238D01*
X15814524Y-12606619D01*
X15805000Y-12578048D01*
X15795476Y-12559000D01*
X15776428Y-12530428D01*
X15766905Y-12520905D01*
M02*
